<?xml version="1.0" standalone="no"?>
<!DOCTYPE svg PUBLIC "-//W3C//DTD SVG 20010904//EN" "http://www.w3.org/TR/2001/REC-SVG-20010904/DTD/svg10.dtd">
<svg version="1.0" xmlns="http://www.w3.org/2000/svg"
  width="662.000000pt" height="662.000000pt" viewBox="0 0 662.000000 662.000000"
  preserveAspectRatio="xMidYMid meet">

  <g transform="translate(0.000000,662.000000) scale(0.100000,-0.100000)"
    fill="#5b21b6" stroke="none">
    <path
      d="M3078 5661 c-104 -46 -198 -111 -297 -205 -189 -183 -301 -402 -346
-681 -23 -138 -27 -128 65 -165 161 -65 303 -192 371 -333 36 -74 44 -101 69
-239 13 -68 59 -140 112 -175 l38 -26 0 -93 c0 -69 -3 -94 -12 -94 -25 1 -105
69 -136 115 -45 68 -69 138 -86 256 -28 182 -60 259 -151 358 -216 233 -578
275 -971 111 -287 -119 -523 -328 -674 -596 l-24 -41 32 -99 c78 -247 232
-485 419 -650 243 -213 528 -342 733 -331 101 6 150 23 248 89 63 42 148 84
226 112 16 6 13 12 -26 54 -60 65 -85 108 -104 182 -19 76 -14 149 18 221 27
65 121 152 185 172 50 16 133 32 133 25 0 -2 -31 -35 -68 -73 -41 -42 -80 -94
-97 -130 -26 -53 -29 -71 -30 -155 0 -88 3 -101 32 -161 18 -36 41 -73 52 -83
19 -17 22 -17 65 -1 43 16 47 17 71 1 14 -9 31 -28 37 -42 17 -37 -11 -91 -54
-102 -95 -24 -102 -164 -15 -268 37 -44 150 -119 221 -148 l59 -24 55 24 c72
32 170 103 219 158 41 46 63 101 63 153 0 37 -39 97 -65 101 -33 6 -65 43 -65
74 0 41 14 63 49 78 27 11 35 10 66 -9 l35 -20 34 47 c115 157 78 380 -88 534
l-51 48 40 -6 c78 -11 114 -25 169 -62 103 -69 149 -155 150 -277 1 -96 -24
-157 -99 -248 -26 -32 -46 -60 -44 -62 2 -1 33 -15 68 -30 71 -29 92 -42 166
-96 67 -50 117 -69 195 -76 241 -20 599 144 840 386 167 168 275 345 346 566
l38 118 -37 71 c-138 266 -421 498 -732 600 -127 42 -210 56 -355 63 -172 7
-229 -4 -359 -68 -122 -60 -216 -146 -268 -244 -38 -72 -49 -112 -63 -230 -20
-167 -71 -281 -153 -347 -27 -21 -52 -38 -56 -38 -5 0 -11 28 -15 61 -11 107
-8 125 19 143 72 48 100 97 121 218 19 112 37 167 75 233 83 145 206 247 373
310 l61 23 -3 59 c-4 87 -29 214 -62 309 -95 281 -324 535 -594 659 -41 19
-76 35 -78 34 -2 0 -42 -17 -90 -38z m116 -1411 c22 -200 36 -396 36 -517 l0
-101 35 -22 c135 -83 112 -290 -37 -335 -87 -26 -166 1 -215 73 -59 88 -26
219 67 267 l27 14 7 193 c7 211 45 607 56 586 4 -7 15 -78 24 -158z" />
    <path
      d="M2694 2879 c-34 -10 -96 -41 -138 -69 -151 -99 -213 -120 -351 -120
-118 0 -205 20 -312 70 -47 22 -90 37 -94 33 -13 -14 -38 -125 -50 -223 -27
-225 37 -490 160 -661 33 -47 46 -57 78 -63 68 -11 150 -6 250 13 272 54 527
224 697 466 27 39 51 72 53 74 2 3 19 -3 39 -13 42 -19 42 -3 1 -219 -63 -327
-50 -664 39 -1032 13 -55 32 -111 43 -125 25 -35 65 -38 86 -6 15 23 15 30 -4
108 -34 146 -46 257 -46 458 0 262 19 371 106 590 27 69 64 151 82 182 l33 58
51 -78 c192 -289 511 -470 842 -475 l113 -2 27 32 c45 54 108 173 135 254 60
180 72 426 27 569 -32 100 -25 97 -130 55 -117 -46 -204 -65 -313 -65 -115 0
-184 23 -298 98 -86 57 -169 96 -232 109 l-28 6 16 -38 c8 -20 15 -64 15 -97
1 -134 -111 -269 -301 -367 -56 -28 -109 -51 -118 -51 -50 0 -250 118 -318
188 -102 104 -129 208 -89 340 9 26 7 26 -71 1z" />
  </g>
</svg>